# xmcd
#
# Track frame offsets: 
#        150
#        16051
#        51229
#        79547
#        114350
#        138790
#        170863
#        200946
#        227774
#
# Disc length: 3438 seconds
#
# Revision: 0
# Processed by: cddbd v1.5.2PL0 Copyright (c) Steve Scherf et al.
# Submitted via: ExactAudioCopy v0.99pb3
#
DISCID=720d6c09
DTITLE=Steve Winwood - Nine Lives
DYEAR=2008
DGENRE=Blues
TTITLE0=I'm Not Drowning
TTITLE1=Fly
TTITLE2=Raging Sea
TTITLE3=Dirty City
TTITLE4=We're All Looking
TTITLE5=Hungry Man
TTITLE6=Secrets
TTITLE7=At Times We Do Forget
TTITLE8=Other Shore
EXTD=
EXTT0=
EXTT1=
EXTT2=
EXTT3=
EXTT4=
EXTT5=
EXTT6=
EXTT7=
EXTT8=
PLAYORDER=
